<?xml version="1.0" encoding="utf-8"?>
<!-- Generator: Adobe Illustrator 18.1.0, SVG Export Plug-In . SVG Version: 6.00 Build 0)  -->
<!DOCTYPE svg PUBLIC "-//W3C//DTD SVG 1.1//EN" "http://www.w3.org/Graphics/SVG/1.1/DTD/svg11.dtd">
<svg version="1.1" id="Layer_1" xmlns="http://www.w3.org/2000/svg" xmlns:xlink="http://www.w3.org/1999/xlink" x="0px" y="0px"
	 viewBox="0 0 767.2 395.5" enable-background="new 0 0 767.2 395.5" xml:space="preserve">
<rect x="0" y="0" opacity="0.48" fill="#FF0000" width="767.2" height="395.5"/>
<g>
	<path fill="#FFFFFF" d="M199.4,103h51.3l50.8,74.7l50.5-74.7h51.3v194.5h-62.1v-70l-39.7,58.3l-40-58.3v70h-62.1V103z M236.1,274.2
		V140.3l65.3,95.1l65-95.1v133.9h7.6V126.3h-7.6l-65,96l-65.3-96h-7.6v147.9H236.1z"/>
	<path fill="#FFFFFF" d="M567.8,174.7c0,8.2-0.9,16.2-2.8,24.1c-1.9,7.9-4.2,15.5-7.1,22.8c-2.9,7.3-6.2,14.2-9.9,20.9
		c-3.7,6.6-7.5,12.7-11.4,18.4c-4.5,6.6-9.3,13-14.6,19.1c-5.2,6.1-10.7,12-16.3,17.6h-70.6c2.1-2.1,4.4-4.5,6.7-7.1s4.8-5.3,7.3-8
		c4.1-4.9,8.5-10.5,13.3-17.1c4.8-6.5,9.4-13.9,13.9-22c-8.8-1.8-16.7-4.8-23.9-9.2c-7.2-4.4-13.4-9.7-18.5-15.9
		c-5.2-6.2-9.1-13.3-11.8-21.3c-2.7-8-4.1-16.4-4.1-25.4c0-10.1,1.8-19.6,5.5-28.6c3.7-8.9,8.8-16.8,15.3-23.5
		c6.5-6.7,14.2-12,23.2-15.8c8.9-3.8,18.7-5.7,29.2-5.7c10.9,0,21,1.9,30.3,5.7c9.3,3.8,17.5,9.1,24.4,16c6.9,6.9,12.3,15,16.2,24.4
		C565.8,153.4,567.8,163.6,567.8,174.7z M492.8,125.1c-6.6,0-12.8,1.3-18.7,3.8c-5.8,2.5-10.9,5.9-15.2,10.2
		c-4.3,4.3-7.7,9.3-10.2,15.2c-2.5,5.8-3.8,12.1-3.8,18.7c0,6.6,1.3,12.8,3.8,18.7c2.5,5.8,5.9,10.9,10.2,15.2
		c4.3,4.3,9.3,7.7,15.2,10.2c5.8,2.5,12.1,3.8,18.7,3.8c7.2,0,13.9-1.4,20-4.2c6.1-2.8,11.4-6.8,15.9-11.8
		c-3.1,9.5-7.2,18.5-12.3,27c-5.1,8.5-10.1,15.8-15.2,22c-2.9,3.7-5.9,7.2-8.9,10.6c-3,3.4-6.2,6.7-9.5,9.8h9.3
		c4.5-4.5,8.7-9.2,12.7-14.1c4-5,7.8-10.2,11.5-15.6c2.9-4.5,5.8-9.3,8.8-14.6c2.9-5.2,5.5-10.7,7.7-16.5c2.2-5.7,4.1-11.7,5.5-17.8
		s2.2-12.3,2.2-18.5c0-8.2-1.3-15.5-3.8-21.9c-2.5-6.4-6-11.9-10.4-16.3c-4.4-4.5-9.4-7.9-15.2-10.2
		C505.6,126.3,499.4,125.1,492.8,125.1z M532.8,173c0,5.6-1,10.8-3.1,15.6c-2,4.8-4.9,9-8.6,12.7c-3.7,3.7-8,6.6-12.8,8.6
		c-4.9,2-10,3.1-15.5,3.1c-5.6,0-10.8-1-15.6-3.1c-4.8-2-9-4.9-12.7-8.6c-3.7-3.7-6.6-7.9-8.6-12.7c-2-4.8-3.1-10-3.1-15.6
		c0-5.4,1-10.6,3.1-15.5c2-4.9,4.9-9.1,8.6-12.8c3.7-3.7,7.9-6.6,12.7-8.6c4.8-2,10-3.1,15.6-3.1c5.4,0,10.6,1,15.5,3.1
		c4.9,2,9.1,4.9,12.8,8.6c3.7,3.7,6.6,8,8.6,12.8C531.8,162.4,532.8,167.5,532.8,173z M510.3,173.3c0-5.1-1.7-9.3-5.1-12.7
		c-3.4-3.4-7.5-5.1-12.4-5.1c-4.9,0-9,1.7-12.4,5.1c-3.4,3.4-5.1,7.5-5.1,12.4c0,4.9,1.7,9,5.1,12.4c3.4,3.4,7.5,5.1,12.4,5.1
		c4.7,0,8.8-1.7,12.2-5.1C508.6,182,510.3,177.9,510.3,173.3z"/>
</g>
</svg>
